<svg viewBox="16 16 160 160" xmlns:xlink="http://www.w3.org/1999/xlink" xmlns="http://www.w3.org/2000/svg"><path d="M32.756 157.958c-21.038-22.843-20.972-101.223-.018-123.886 20.958-22.652 105.488-22.864 126.524-.027 21.04 22.843 20.934 101.219-.02 123.875-20.958 22.657-105.45 22.877-126.484.038z" style="fill:url(#a);fill-opacity:1;stroke:url(#linearGradient6);stroke-width:2;stroke-dasharray:none"/><path d="M140.523 84.143a2.243 2.243 0 1 0-4.487 0v10.096H125.94a2.244 2.244 0 1 0 0 4.489h10.096v10.096a2.243 2.243 0 1 0 4.487 0V98.728h10.096a2.244 2.244 0 1 0 0-4.489h-10.096Z" style="fill:#1b1b00;fill-opacity:1;stroke-width:1"/><path d="M98.668 45.606c10.23.08 20.422 3.276 28.812 9.135 5.171 3.347 6.754 9.972 2.047 15.05l-2.548 2.562a1910.937 1910.937 0 0 1-4.226 4.228c-3.494 3.149-8.314 3.465-12.45.759-10.533-6.906-25.234-3.26-31.79 8.523-6.771 12.157-.2 27.194 12.017 31.756 6.687 2.497 14.216 1.693 20.471-2.426 1.707-1.121 7.377-3.07 11.719 1.222a1834.592 1834.616 0 0 1 6.015 5.964c2.274 2.265 3.264 4.155 3.478 6.725.43 5.127-2.497 8.49-9.302 11.995-18.219 10-41.046 8.39-58.255-6.543-17.324-14.736-22.409-41.37-11.273-61.774 9.068-16.612 25.68-26.931 44.04-27.165.413-.004.83-.009 1.245-.009z" fill="#1b1b1f" style="stroke-width:1"/><defs><linearGradient id="b" x1="72.039" y1="40.805" x2="3.553" y2="16.884" gradientUnits="userSpaceOnUse" gradientTransform="matrix(.99586 0 0 .98971 .151 .153)"><stop stop-color="#FFDD29" offset="0"/><stop offset="1" stop-color="#FFBF00"/></linearGradient><linearGradient xlink: id="a" x1="71.996" y1="36.22" x2="0" y2="36.22" gradientUnits="userSpaceOnUse" gradientTransform="matrix(2.19454 0 0 2.18113 17 16.999)"/></defs></svg>
