<svg width="16" height="17" viewBox="0 0 16 17" fill="none" xmlns="http://www.w3.org/2000/svg">
<path d="M10.6673 14.981V13.6476C10.6673 12.9404 10.3864 12.2621 9.88626 11.762C9.38616 11.2619 8.70789 10.981 8.00064 10.981H4.00064C3.2934 10.981 2.61512 11.2619 2.11502 11.762C1.61493 12.2621 1.33398 12.9404 1.33398 13.6476V14.981" stroke="#234568" stroke-width="1.33333" stroke-linecap="round" stroke-linejoin="round"/>
<path d="M6.00064 8.31429C7.4734 8.31429 8.66731 7.12038 8.66731 5.64762C8.66731 4.17486 7.4734 2.98096 6.00064 2.98096C4.52788 2.98096 3.33398 4.17486 3.33398 5.64762C3.33398 7.12038 4.52788 8.31429 6.00064 8.31429Z" stroke="#234568" stroke-width="1.33333" stroke-linecap="round" stroke-linejoin="round"/>
<path d="M14.666 14.9808V13.6474C14.6656 13.0566 14.4689 12.4826 14.1069 12.0156C13.7449 11.5487 13.2381 11.2151 12.666 11.0674" stroke="#234568" stroke-width="1.33333" stroke-linecap="round" stroke-linejoin="round"/>
<path d="M10.666 3.06787C11.2396 3.21473 11.748 3.54833 12.1111 4.01607C12.4742 4.48381 12.6712 5.05909 12.6712 5.6512C12.6712 6.24331 12.4742 6.81859 12.1111 7.28633C11.748 7.75407 11.2396 8.08767 10.666 8.23453" stroke="#234568" stroke-width="1.33333" stroke-linecap="round" stroke-linejoin="round"/>
</svg>
