<svg width="16" height="17" viewBox="0 0 16 17" fill="none" xmlns="http://www.w3.org/2000/svg">
<mask id="mask0_509_3140" style="mask-type:luminance" maskUnits="userSpaceOnUse" x="0" y="0" width="16" height="17">
<path d="M16 0.980957H0V16.981H16V0.980957Z" fill="white"/>
</mask>
<g mask="url(#mask0_509_3140)">
<path d="M10.9037 5.94237C11.133 6.49598 11.251 7.08933 11.251 7.68854C11.251 8.28776 11.133 8.88111 10.9037 9.43472C10.6744 9.98832 10.3383 10.4913 9.91456 10.9151C9.49085 11.3388 8.98783 11.6749 8.43423 11.9042C7.88062 12.1335 7.28727 12.2515 6.68806 12.2515C6.08884 12.2515 5.49549 12.1335 4.94188 11.9042C4.38828 11.6749 3.88526 11.3388 3.46155 10.9151C3.03784 10.4913 2.70173 9.98832 2.47242 9.43472C2.24311 8.88111 2.12509 8.28776 2.12509 7.68854C2.12509 7.08933 2.24311 6.49598 2.47242 5.94237C2.70173 5.38877 3.03784 4.88575 3.46155 4.46204C3.88526 4.03833 4.38828 3.70222 4.94188 3.47291C5.49549 3.2436 6.08884 3.12557 6.68806 3.12557C7.28727 3.12557 7.88062 3.2436 8.43423 3.47291C8.98783 3.70222 9.49085 4.03833 9.91456 4.46204C10.3383 4.88575 10.6744 5.38877 10.9037 5.94237ZM6.68806 13.6266C8.08004 13.6266 9.36111 13.1488 10.372 12.3467L14.078 16.0501C14.3452 16.3173 14.7824 16.3173 15.0496 16.0501C15.3168 15.7829 15.3168 15.3457 15.0496 15.0785L11.3462 11.3725C12.1484 10.3616 12.6261 9.08053 12.6261 7.68854C12.6261 4.40837 9.96823 1.75049 6.68806 1.75049C3.40788 1.75049 0.75 4.40837 0.75 7.68854C0.75 10.9687 3.40788 13.6266 6.68806 13.6266Z" fill="#234568" stroke="#234568" stroke-width="0.5"/>
</g>
</svg>
