<svg width="16" height="17" viewBox="0 0 16 17" fill="none" xmlns="http://www.w3.org/2000/svg">
<g clip-path="url(#clip0_509_3147)">
<path d="M4.18393 8.23074L2.05581 3.97761L11.9808 8.23074H4.18393ZM4.18393 9.73074H11.9808L2.05581 13.9839L4.18081 9.73074H4.18393ZM1.39331 2.06199C1.00893 1.89636 0.558937 1.99011 0.271437 2.29324C-0.0160637 2.59636 -0.0816887 3.05261 0.105812 3.42761L2.88081 8.98074L0.105812 14.5339C-0.0816887 14.9089 -0.0160637 15.362 0.271437 15.6683C0.558937 15.9745 1.00581 16.0652 1.39331 15.9027L15.3933 9.90261C15.762 9.74636 15.9995 9.38386 15.9995 8.98386C15.9995 8.58386 15.762 8.22136 15.3933 8.06511L1.39331 2.06511V2.06199Z" fill="#234568"/>
</g>
<defs>
<clipPath id="clip0_509_3147">
<rect width="16" height="17" fill="white"/>
</clipPath>
</defs>
</svg>
